<?xml version="1.0" encoding="utf-8"?>
<!-- Generator: Adobe Illustrator 26.0.2, SVG Export Plug-In . SVG Version: 6.00 Build 0)  -->
<svg version="1.1" id="Layer_1" xmlns="http://www.w3.org/2000/svg" xmlns:xlink="http://www.w3.org/1999/xlink" x="0px" y="0px"
	 viewBox="0 0 806.1 112.8" style="enable-background:new 0 0 806.1 112.8;" xml:space="preserve">
<style type="text/css">
	.st0{fill:url(#SVGID_1_);}
</style>
<linearGradient id="SVGID_1_" gradientUnits="userSpaceOnUse" x1="0" y1="56.4836" x2="806.1079" y2="56.4836">
	<stop  offset="0" style="stop-color:#2F4585"/>
	<stop  offset="0.3674" style="stop-color:#674374"/>
	<stop  offset="0.675" style="stop-color:#7B417E"/>
	<stop  offset="1" style="stop-color:#BB2649"/>
</linearGradient>
<path class="st0" d="M0,111.9h27.5c6.9,0,13.9-2.9,19.2-8c4.9-5.3,8-12.3,8-19.5v-57c0-7.3-2.9-14.3-8-19.5c-5.3-4.9-12.3-8-19.2-8
	H0V111.9z M27.5,17.2c2.7,0,4.9,1.3,6.9,2.9c2,2,2.9,4.7,2.9,7.3v57c0,2.7-0.9,5.3-2.9,7.3c-2,1.6-4.3,2.9-6.9,2.9H17.2V17.2
	L27.5,17.2z M118,17.2V0H67.6v111.9h50.3V94.7H84.8V64.6h24.8V47.3H84.8V17.2L118,17.2z M179.7,80.4c0-7.3-2-13.6-6.3-19.2
	c-4.7-6-10.9-10.3-17.6-13.2c-3.6-1.6-7.6-4.3-10.3-7.6c-2-2.7-2.9-5.6-2.9-8.9v-4c0-2.7,0.9-5.3,2.9-7.3c1.6-1.6,4.3-2.9,6.9-2.9
	s5.3,1.3,6.9,2.9c2,2,2.9,4.7,2.9,7.3v7.3h17.3v-7.3c0-7.3-2.7-14.3-8-19.5c-4.9-4.9-11.9-8-19.2-8s-14.3,2.9-19.2,8
	c-5.3,5.3-8,12.3-8,19.5v4c0,7.3,2,13.6,6.3,19.5c4.7,5.6,10.9,10,17.2,12.9c4,1.6,8,4.3,10.5,7.6c2,2.7,2.9,5.6,2.9,8.9v4
	c0,2.7-0.9,5.3-2.9,7.3c-1.6,1.6-4.3,2.9-6.9,2.9c-2.7,0-5.3-1.3-6.9-2.9c-2-2-2.9-4.7-2.9-7.3v-7.3h-17.2v7.3
	c0,7.3,2.7,14.3,8,19.5c4.9,4.9,11.9,8,19.2,8s14.3-2.9,19.2-8c5.3-5.3,8-12.3,8-19.5L179.7,80.4z M208.5,111.9V0h-17.2v111.9
	L208.5,111.9L208.5,111.9z M258.9,84.4c0,2.7-0.9,5.3-2.9,7.3c-1.6,1.6-4.3,2.9-6.9,2.9s-5.3-1.3-6.9-2.9c-2-2-2.9-4.7-2.9-7.3v-57
	c0-2.7,0.9-5.3,2.9-7.3c1.6-1.6,4.3-2.9,6.9-2.9s5.3,1.3,6.9,2.9c2,2,2.9,4.7,2.9,7.3v4h17.2v-4c0-7.3-2.7-14.3-8-19.5
	c-4.9-4.9-11.9-8-19.2-8s-14.3,2.9-19.2,8c-5.3,5.3-8.3,12.3-8.3,19.5v57c0,7.3,2.9,14.3,8.3,19.5c4.9,4.9,11.9,8,19.2,8
	s14.3-2.9,19.2-8c5.3-5.3,8-12.3,8-19.5V44h-27.2v17.2h9.9v23.2H258.9z M303.2,0h-14.3v111.9h17.2V51.3l23.9,60.6h14.5V0h-17.6v60.6
	L303.2,0z M416.4,0h-17.3v112.8h14.7l12.7-32.7l13.1,32.7h18.7l-22.4-56.4L458.1,0h-18.7l-23.1,63.1V0z M515.4,85.5l-8.7-22.7
	c2.7-1.3,5.1-3.3,7.3-5.3c5.1-5.3,8-12,8-19.3V27.5c0-7.3-3.1-14.4-8-19.3c-4.9-4.9-12-8-19.3-8h-28V113h18V65.6h3.7l10.7,26.7
	c3.1,8.4,8.7,15.1,17.3,18.4c5.7,2,11.1,2.3,17.1,2.3c10-0.3,28,0,38,0h4V95h-40.4C526.4,95.1,519.1,94.8,515.4,85.5L515.4,85.5z
	 M504,38c0,2.3-1.1,4.7-2.7,6.7c-1.7,1.7-4,2.7-6.7,2.7h-10V18h10c2.7,0,5.1,1.1,6.7,2.7c1.7,1.7,2.7,4,2.7,6.7V38z M575.5,17.7V0
	h-43.1v85.5h43.1V67.8h-25.3v-16h20V34h-20V17.6L575.5,17.7z M618.1,41.3l8.7,33.3H609L618.1,41.3z M632.1,94.8l4.7,18h18L625,0
	h-14.4l-29.7,112.8h18l4.7-18H632.1z M700.3,17.3V0h-55.1v17.3h19.1v95.5h17.3V17.3L700.3,17.3L700.3,17.3z M725,112.8V0h-17.3
	v112.8H725z M750.4,0h-18l29.7,112.8h14L806.1,0h-18L769,75.1L750.4,0z M371.7,50.3c5.4,0,9.7,4.4,9.7,9.7s-4.4,9.7-9.7,9.7
	c-5.4,0-9.7-4.4-9.7-9.7S366.3,50.3,371.7,50.3z"/>
</svg>
